<?xml version="1.0" standalone="no"?>
<!DOCTYPE svg PUBLIC "-//W3C//DTD SVG 20010904//EN"
 "http://www.w3.org/TR/2001/REC-SVG-20010904/DTD/svg10.dtd">
<svg version="1.0" xmlns="http://www.w3.org/2000/svg"
 width="700.000000pt" height="700.000000pt" viewBox="0 0 700.000000 700.000000"
 preserveAspectRatio="xMidYMid meet">
<metadata>
Created by potrace 1.14, written by Peter Selinger 2001-2017
</metadata>
<g transform="translate(0.000000,700.000000) scale(0.100000,-0.100000)"
fill="#000000" stroke="none">
<path d="M0 3500 l0 -3500 3500 0 3500 0 0 3500 0 3500 -3500 0 -3500 0 0
-3500z m5113 1946 c18 -7 93 -76 168 -152 108 -110 140 -148 150 -181 28 -95
91 -24 -1064 -1181 -579 -579 -1064 -1060 -1079 -1068 -35 -18 -111 -18 -146
0 -15 8 -374 363 -799 788 -760 762 -772 774 -778 819 -11 76 15 116 166 265
145 143 180 163 256 150 34 -7 101 -70 631 -599 l592 -592 868 867 c477 476
881 873 897 882 38 19 96 20 138 2z m5 -1310 c15 -8 91 -79 168 -158 126 -127
143 -148 149 -185 15 -91 60 -40 -1064 -1166 -592 -594 -1062 -1057 -1083
-1068 -45 -23 -98 -24 -142 -4 -17 8 -376 360 -798 782 -843 845 -806 802
-779 896 10 33 41 71 149 179 74 76 150 144 168 153 41 19 97 19 137 -1 18 -9
293 -277 612 -595 l580 -579 860 861 c473 474 874 870 890 880 36 23 114 25
153 5z"/>
</g>
</svg>
